<?xml version="1.0" standalone="no"?>
<!DOCTYPE svg PUBLIC "-//W3C//DTD SVG 20010904//EN"
 "http://www.w3.org/TR/2001/REC-SVG-20010904/DTD/svg10.dtd">
<svg version="1.0" xmlns="http://www.w3.org/2000/svg"
 width="256.000000pt" height="256.000000pt" viewBox="0 0 256.000000 256.000000"
 preserveAspectRatio="xMidYMid meet">
<metadata>
Created by potrace 1.14, written by Peter Selinger 2001-2017
</metadata>
<g transform="translate(0.000000,256.000000) scale(0.100000,-0.100000)"
fill="#000000" stroke="none">
<path d="M840 1960 l0 -40 -40 0 c-33 0 -40 -3 -40 -20 0 -19 -7 -20 -180 -20
l-180 0 0 -30 c0 -27 -3 -30 -30 -30 l-30 0 0 -730 0 -730 30 0 c27 0 30 -3
30 -30 0 -25 4 -30 25 -30 21 0 25 -5 25 -30 0 -27 3 -30 30 -30 27 0 30 -3
30 -30 0 -27 3 -30 30 -30 27 0 30 -3 30 -30 0 -27 3 -30 30 -30 27 0 30 -3
30 -30 0 -27 3 -30 30 -30 27 0 30 -3 30 -30 l0 -30 585 0 585 0 0 30 c0 27 3
30 30 30 27 0 30 3 30 30 0 27 3 30 30 30 27 0 30 3 30 30 0 27 3 30 30 30 27
0 30 3 30 30 0 27 3 30 30 30 27 0 30 3 30 30 0 27 3 30 30 30 27 0 30 3 30
30 0 25 4 30 25 30 l25 0 0 730 0 730 -25 0 c-21 0 -25 5 -25 30 l0 30 -235 0
-235 0 0 -85 c0 -84 0 -85 -25 -85 -20 0 -25 5 -25 25 0 25 -1 25 -80 25 -79
0 -80 0 -80 -25 l0 -25 -120 0 -120 0 0 25 c0 23 -4 25 -40 25 l-40 0 0 80 0
80 -40 0 -40 0 0 40 0 40 -120 0 -120 0 0 -40z m-160 -370 l0 -230 40 0 40 0
0 40 0 40 40 0 40 0 0 -80 0 -80 -80 0 -80 0 0 -80 0 -80 40 0 40 0 0 -80 0
-80 80 0 80 0 0 80 0 80 40 0 40 0 0 80 0 80 -40 0 -40 0 0 40 0 40 40 0 40 0
0 40 0 40 -40 0 -40 0 0 40 0 40 -80 0 -80 0 0 40 0 40 40 0 40 0 0 40 0 40
40 0 40 0 0 40 0 40 120 0 120 0 0 -40 0 -40 40 0 40 0 0 -80 0 -80 40 0 40 0
0 40 0 40 80 0 80 0 0 40 0 40 80 0 80 0 0 -80 0 -80 -40 0 -40 0 0 -40 0 -40
40 0 40 0 0 -40 0 -40 80 0 80 0 0 40 c0 36 -2 40 -25 40 l-25 0 0 190 0 190
205 0 205 0 0 -25 c0 -21 -5 -25 -30 -25 -27 0 -30 -3 -30 -30 0 -27 -3 -30
-30 -30 l-30 0 0 -470 0 -470 -30 0 c-27 0 -30 -3 -30 -30 0 -27 -3 -30 -30
-30 -27 0 -30 -3 -30 -30 0 -27 -3 -30 -30 -30 l-30 0 0 -265 0 -265 -30 0
c-27 0 -30 -3 -30 -30 l0 -30 -525 0 -525 0 0 30 c0 27 -3 30 -30 30 l-30 0 0
265 0 265 -30 0 c-27 0 -30 3 -30 30 0 27 -3 30 -30 30 -27 0 -30 3 -30 30 0
27 -3 30 -30 30 l-30 0 0 470 0 470 -30 0 c-27 0 -30 3 -30 30 0 25 -4 30 -25
30 -20 0 -25 5 -25 25 l0 25 140 0 140 0 0 -230z"/>
<path d="M1000 1520 l0 -80 40 0 40 0 0 80 0 80 -40 0 -40 0 0 -80z"/>
<path d="M600 1320 l0 -40 40 0 40 0 0 40 0 40 -40 0 -40 0 0 -40z"/>
<path d="M1480 1320 l0 -40 80 0 80 0 0 -40 0 -40 80 0 80 0 0 -40 0 -40 -40
0 -40 0 0 -40 0 -40 -120 0 -120 0 0 40 0 40 -40 0 -40 0 0 40 0 40 -40 0 -40
0 0 40 0 40 -40 0 -40 0 0 -40 0 -40 40 0 40 0 0 -40 0 -40 40 0 40 0 0 -80 0
-80 40 0 40 0 0 -40 0 -40 -200 0 -200 0 0 40 0 40 -80 0 -80 0 0 -40 0 -40
-80 0 -80 0 0 40 0 40 -40 0 -40 0 0 -40 0 -40 40 0 40 0 0 -40 0 -40 40 0 40
0 0 -40 0 -40 80 0 80 0 0 -40 0 -40 240 0 240 0 0 40 0 40 80 0 80 0 0 40 0
40 40 0 40 0 0 40 0 40 40 0 40 0 0 80 0 80 40 0 40 0 0 160 0 160 -40 0 -40
0 0 -40 0 -40 -80 0 -80 0 0 40 0 40 -80 0 -80 0 0 -40z"/>
<path d="M750 385 l0 -205 30 0 c27 0 30 -3 30 -30 l0 -30 470 0 470 0 0 30
c0 25 4 30 25 30 l25 0 0 205 0 205 -525 0 -525 0 0 -205z m230 0 c0 -24 3
-25 60 -25 57 0 60 1 60 25 0 24 3 25 60 25 57 0 60 -1 60 -25 0 -24 3 -25 55
-25 52 0 55 1 55 25 0 24 3 25 60 25 57 0 60 -1 60 -25 0 -24 3 -25 60 -25 57
0 60 1 60 25 0 21 5 25 30 25 25 0 30 -4 30 -25 0 -21 -5 -25 -30 -25 -27 0
-30 -3 -30 -30 l0 -30 -60 0 -60 0 0 30 0 30 -60 0 -60 0 0 -30 c0 -30 -1 -30
-55 -30 -54 0 -55 0 -55 30 l0 30 -60 0 -60 0 0 -30 0 -30 -60 0 -60 0 0 30
c0 27 -3 30 -30 30 -25 0 -30 4 -30 25 0 21 5 25 30 25 25 0 30 -4 30 -25z
m60 -175 l0 -30 -60 0 -60 0 0 30 0 30 60 0 60 0 0 -30z m180 0 l0 -30 -60 0
-60 0 0 30 0 30 60 0 60 0 0 -30z m230 0 l0 -30 -60 0 -60 0 0 30 0 30 60 0
60 0 0 -30z m180 0 l0 -30 -60 0 -60 0 0 30 0 30 60 0 60 0 0 -30z"/>
</g>
</svg>
